<svg xmlns="http://www.w3.org/2000/svg" xmlns:xlink="http://www.w3.org/1999/xlink" viewBox="0 0 75.13 11.52"><defs><style>.a{isolation:isolate;}.b{fill:url(#a);}.c,.e,.g,.i,.k,.m{opacity:0.5;mix-blend-mode:multiply;}.c{fill:url(#b);}.d{fill:url(#c);}.e{fill:url(#d);}.f{fill:url(#e);}.g{fill:url(#f);}.h{fill:url(#g);}.i{fill:url(#h);}.j{fill:url(#i);}.k{fill:url(#j);}.l{fill:url(#k);}.m{fill:url(#l);}</style><radialGradient id="a" cx="2.05" cy="11.66" r="12.62" gradientUnits="userSpaceOnUse"><stop offset="0.35" stop-color="#ffc200"/><stop offset="0.51" stop-color="#ffbd07"/><stop offset="0.72" stop-color="#ffaf19"/><stop offset="0.98" stop-color="#ff9737"/><stop offset="1" stop-color="#ff953a"/></radialGradient><radialGradient id="b" cx="1.09" cy="14.79" r="18.25" xlink:href="#a"/><radialGradient id="c" cx="17.81" cy="11.66" r="12.62" xlink:href="#a"/><radialGradient id="d" cx="16.85" cy="14.79" r="18.25" xlink:href="#a"/><radialGradient id="e" cx="33.58" cy="11.66" r="12.62" xlink:href="#a"/><radialGradient id="f" cx="32.62" cy="14.79" r="18.25" xlink:href="#a"/><radialGradient id="g" cx="49.34" cy="11.66" r="12.62" xlink:href="#a"/><radialGradient id="h" cx="48.38" cy="14.79" r="18.25" xlink:href="#a"/><radialGradient id="i" cx="65.11" cy="11.66" r="12.62" xlink:href="#a"/><radialGradient id="j" cx="64.15" cy="14.79" r="18.25" xlink:href="#a"/><radialGradient id="k" cx="65.11" cy="11.66" r="12.62" gradientUnits="userSpaceOnUse"><stop offset="0.35" stop-color="#dbdbdb"/><stop offset="0.55" stop-color="#d4d4d4"/><stop offset="0.82" stop-color="#c2c2c2"/><stop offset="0.99" stop-color="#b3b3b3"/></radialGradient><radialGradient id="l" cx="64.15" cy="14.79" r="18.25" xlink:href="#k"/></defs><g class="a"><path class="b" d="M9.83,11.09c.06.37-.17.53-.5.36L6.61,10.08a1.52,1.52,0,0,0-1.2,0L2.67,11.42c-.32.17-.55,0-.49-.36l.46-3A1.54,1.54,0,0,0,2.28,6.9L.15,4.72c-.26-.26-.17-.53.19-.59l3-.49a1.51,1.51,0,0,0,1-.7L5.74.24c.17-.32.45-.32.62,0L7.76,3a1.52,1.52,0,0,0,1,.7l3,.52c.36.06.45.33.19.59L9.77,6.94A1.47,1.47,0,0,0,9.4,8.07Z"/><path class="c" d="M6.05.15c.06,0,.12.06.18.16L7.62,3a1.68,1.68,0,0,0,1.08.78l3,.52c.12,0,.2.06.21.12s0,.13-.1.21L9.66,6.83a1.66,1.66,0,0,0-.41,1.26l.43,3a.27.27,0,0,1,0,.23.12.12,0,0,1-.08,0,.41.41,0,0,1-.17,0L6.67,10A1.41,1.41,0,0,0,6,9.8a1.45,1.45,0,0,0-.65.14L2.61,11.29a.41.41,0,0,1-.17.05c-.06,0-.08,0-.08,0a.25.25,0,0,1,0-.22l.46-3A1.67,1.67,0,0,0,2.38,6.8L.25,4.61a.27.27,0,0,1-.1-.21c0-.06.1-.1.21-.12l3-.49A1.64,1.64,0,0,0,4.45,3L5.88.31c0-.1.12-.16.17-.16m0-.15c-.11,0-.22.08-.31.24L4.32,2.94a1.51,1.51,0,0,1-1,.7l-3,.49c-.36.06-.45.33-.19.59L2.28,6.9A1.54,1.54,0,0,1,2.64,8l-.46,3c0,.27.07.43.26.43a.43.43,0,0,0,.23-.07l2.74-1.35A1.38,1.38,0,0,1,6,10a1.48,1.48,0,0,1,.61.13l2.72,1.37a.49.49,0,0,0,.24.07c.19,0,.3-.16.26-.43l-.43-3a1.47,1.47,0,0,1,.37-1.13l2.15-2.17c.26-.26.17-.53-.19-.59l-3-.52a1.52,1.52,0,0,1-1-.7L6.36.25A.37.37,0,0,0,6.05,0Z"/><path class="d" d="M25.6,11.09c0,.37-.17.53-.5.36l-2.73-1.37a1.49,1.49,0,0,0-1.19,0l-2.74,1.35c-.33.17-.55,0-.5-.36l.47-3A1.54,1.54,0,0,0,18,6.9L15.91,4.72c-.25-.26-.17-.53.2-.59l3-.49a1.51,1.51,0,0,0,1-.7L21.51.24c.17-.32.45-.32.62,0L23.52,3a1.54,1.54,0,0,0,1,.7l3,.52c.37.06.45.33.19.59L25.53,6.94a1.55,1.55,0,0,0-.37,1.13Z"/><path class="e" d="M21.82.15c.05,0,.12.06.17.16L23.39,3a1.64,1.64,0,0,0,1.07.78l3,.52c.11,0,.19.06.21.12s0,.13-.1.21L25.43,6.83A1.67,1.67,0,0,0,25,8.09l.44,3a.38.38,0,0,1,0,.23.17.17,0,0,1-.09,0,.51.51,0,0,1-.17,0L22.44,10a1.41,1.41,0,0,0-.67-.15,1.49,1.49,0,0,0-.66.14l-2.74,1.35a.41.41,0,0,1-.16.05.11.11,0,0,1-.09,0,.29.29,0,0,1,0-.22l.46-3a1.63,1.63,0,0,0-.4-1.27L16,4.61c-.08-.08-.12-.16-.1-.21s.1-.1.21-.12l3-.49A1.66,1.66,0,0,0,20.22,3L21.64.31c.06-.1.12-.16.18-.16m0-.15a.37.37,0,0,0-.31.24l-1.42,2.7a1.51,1.51,0,0,1-1,.7l-3,.49c-.37.06-.45.33-.2.59L18,6.9A1.54,1.54,0,0,1,18.41,8l-.47,3c0,.27.07.43.27.43a.49.49,0,0,0,.23-.07l2.74-1.35a1.35,1.35,0,0,1,.59-.12,1.4,1.4,0,0,1,.6.13l2.73,1.37a.43.43,0,0,0,.23.07c.2,0,.31-.16.27-.43l-.44-3a1.55,1.55,0,0,1,.37-1.13l2.15-2.17c.26-.26.18-.53-.19-.59l-3-.52a1.54,1.54,0,0,1-1-.7L22.13.25C22,.08,21.93,0,21.82,0Z"/><path class="f" d="M41.36,11.09c.06.37-.17.53-.5.36l-2.72-1.37a1.52,1.52,0,0,0-1.2,0l-2.73,1.35c-.33.17-.56,0-.5-.36l.46-3a1.54,1.54,0,0,0-.36-1.14L31.68,4.72c-.26-.26-.17-.53.19-.59l3-.49a1.48,1.48,0,0,0,1-.7L37.27.24c.18-.32.45-.32.62,0L39.29,3a1.52,1.52,0,0,0,1,.7l3,.52c.36.06.45.33.19.59L41.3,6.94a1.47,1.47,0,0,0-.37,1.13Z"/><path class="g" d="M37.58.15c.06,0,.12.06.18.16L39.16,3a1.64,1.64,0,0,0,1.07.78l3,.52c.12,0,.2.06.21.12s0,.13-.1.21L41.19,6.83a1.66,1.66,0,0,0-.41,1.26l.44,3a.31.31,0,0,1,0,.23.09.09,0,0,1-.08,0,.41.41,0,0,1-.17,0L38.2,10a1.38,1.38,0,0,0-.67-.15,1.45,1.45,0,0,0-.65.14l-2.74,1.35a.41.41,0,0,1-.17.05c-.06,0-.08,0-.08,0a.25.25,0,0,1,0-.22l.46-3a1.67,1.67,0,0,0-.41-1.27L31.79,4.61a.25.25,0,0,1-.11-.21c0-.06.1-.1.22-.12l3-.49A1.68,1.68,0,0,0,36,3L37.41.31c.05-.1.12-.16.17-.16m0-.15c-.11,0-.22.08-.31.24l-1.42,2.7a1.48,1.48,0,0,1-1,.7l-3,.49c-.36.06-.45.33-.19.59L33.81,6.9A1.54,1.54,0,0,1,34.17,8l-.46,3c0,.27.07.43.26.43a.49.49,0,0,0,.24-.07l2.73-1.35a1.41,1.41,0,0,1,.59-.12,1.48,1.48,0,0,1,.61.13l2.72,1.37a.49.49,0,0,0,.24.07c.19,0,.3-.16.26-.43l-.43-3a1.47,1.47,0,0,1,.37-1.13l2.15-2.17c.26-.26.17-.53-.19-.59l-3-.52a1.52,1.52,0,0,1-1-.7L37.89.25A.37.37,0,0,0,37.58,0Z"/><path class="h" d="M57.13,11.09c0,.37-.17.53-.5.36L53.9,10.08a1.49,1.49,0,0,0-1.19,0L50,11.42c-.33.17-.55,0-.5-.36l.47-3a1.54,1.54,0,0,0-.37-1.14L47.44,4.72c-.25-.26-.17-.53.2-.59l3-.49a1.51,1.51,0,0,0,1-.7L53,.24c.17-.32.45-.32.62,0L55.05,3a1.54,1.54,0,0,0,1,.7l3,.52c.36.06.44.33.18.59L57.07,6.94a1.52,1.52,0,0,0-.38,1.13Z"/><path class="i" d="M53.35.15s.12.06.17.16L54.92,3A1.64,1.64,0,0,0,56,3.81l3,.52c.11,0,.19.06.21.12s0,.13-.1.21L57,6.83a1.67,1.67,0,0,0-.42,1.26l.44,3a.31.31,0,0,1,0,.23.17.17,0,0,1-.09,0,.41.41,0,0,1-.16,0L54,10a1.41,1.41,0,0,0-.67-.15,1.49,1.49,0,0,0-.66.14l-2.73,1.35a.51.51,0,0,1-.17.05.11.11,0,0,1-.09,0,.34.34,0,0,1,0-.22l.46-3a1.63,1.63,0,0,0-.4-1.27L47.55,4.61c-.08-.08-.12-.16-.1-.21s.1-.1.21-.12l3-.49A1.66,1.66,0,0,0,51.75,3L53.17.31c.06-.1.12-.16.18-.16m0-.15A.37.37,0,0,0,53,.24l-1.42,2.7a1.51,1.51,0,0,1-1,.7l-3,.49c-.37.06-.45.33-.2.59L49.57,6.9A1.54,1.54,0,0,1,49.94,8l-.47,3c0,.27.07.43.27.43a.46.46,0,0,0,.23-.07l2.74-1.35A1.35,1.35,0,0,1,53.3,10a1.4,1.4,0,0,1,.6.13l2.73,1.37a.49.49,0,0,0,.23.07c.2,0,.31-.16.27-.43l-.44-3a1.52,1.52,0,0,1,.38-1.13l2.14-2.17c.26-.26.18-.53-.18-.59l-3-.52a1.54,1.54,0,0,1-1-.7L53.66.25c-.09-.17-.2-.25-.31-.25Z"/><path class="j" d="M72.89,11.09c.06.37-.17.53-.5.36l-2.72-1.37a1.52,1.52,0,0,0-1.2,0l-2.73,1.35c-.33.17-.56,0-.5-.36l.46-3a1.54,1.54,0,0,0-.36-1.14L63.21,4.72c-.26-.26-.17-.53.19-.59l3-.49a1.48,1.48,0,0,0,1-.7L68.8.24c.18-.32.45-.32.62,0L70.82,3a1.52,1.52,0,0,0,1,.7l3,.52c.36.06.45.33.19.59L72.83,6.94a1.47,1.47,0,0,0-.37,1.13Z"/><path class="k" d="M69.11.15c.06,0,.13.06.18.16L70.69,3a1.64,1.64,0,0,0,1.07.78l3,.52c.12,0,.2.06.21.12s0,.13-.1.21L72.72,6.83a1.66,1.66,0,0,0-.41,1.26l.44,3a.31.31,0,0,1,0,.23.09.09,0,0,1-.08,0,.41.41,0,0,1-.17,0L69.74,10a1.6,1.6,0,0,0-1.33,0l-2.74,1.35a.41.41,0,0,1-.17.05c-.06,0-.08,0-.08,0a.25.25,0,0,1,0-.22l.46-3a1.67,1.67,0,0,0-.4-1.27L63.32,4.61c-.08-.08-.12-.16-.1-.21s.09-.1.21-.12l3-.49A1.68,1.68,0,0,0,67.52,3L68.94.31c0-.1.12-.16.17-.16m0-.15c-.11,0-.22.08-.31.24l-1.42,2.7a1.48,1.48,0,0,1-1,.7l-3,.49c-.36.06-.45.33-.19.59L65.34,6.9A1.54,1.54,0,0,1,65.7,8l-.46,3c0,.27.07.43.26.43a.49.49,0,0,0,.24-.07l2.73-1.35a1.41,1.41,0,0,1,.59-.12,1.48,1.48,0,0,1,.61.13l2.72,1.37a.49.49,0,0,0,.24.07c.19,0,.3-.16.26-.43l-.43-3a1.47,1.47,0,0,1,.37-1.13L75,4.77c.26-.26.17-.53-.19-.59l-3-.52a1.52,1.52,0,0,1-1-.7L69.42.25C69.34.08,69.23,0,69.11,0Z"/><path class="l" d="M75,4.77c.26-.26.17-.53-.19-.59l-3-.52a1.52,1.52,0,0,1-1-.7L69.42.25a.35.35,0,0,0-.3-.22V10a1.35,1.35,0,0,1,.55.12l2.72,1.37c.33.17.56,0,.5-.36l-.43-3a1.47,1.47,0,0,1,.37-1.13Z"/><path class="m" d="M75,4.77c.26-.26.17-.53-.19-.59l-3-.52a1.52,1.52,0,0,1-1-.7L69.42.25a.4.4,0,0,0-.3-.25V.16c.06,0,.12.06.17.15L70.69,3a1.64,1.64,0,0,0,1.07.78l3,.52c.12,0,.2.06.21.12s0,.13-.1.21L72.72,6.83a1.66,1.66,0,0,0-.41,1.26l.44,3a.31.31,0,0,1,0,.23.09.09,0,0,1-.08,0,.41.41,0,0,1-.17,0L69.74,10a1.49,1.49,0,0,0-.62-.14V10a1.35,1.35,0,0,1,.55.12l2.72,1.37a.49.49,0,0,0,.24.07c.19,0,.3-.16.26-.43l-.43-3a1.47,1.47,0,0,1,.37-1.13Z"/></g></svg>