<svg xmlns="http://www.w3.org/2000/svg" viewBox="0 0 512 512"><defs><style>.a{fill:#f8ada2;}.b{fill:#5667af;}</style></defs><path class="a" d="M631.16,418.77a20,20,0,0,0-28.28,0l-120,120-49.73-49.73a20,20,0,0,0-28.28,28.28l63.87,63.88a20,20,0,0,0,28.28,0L631.16,447.05A20,20,0,0,0,631.16,418.77Zm0,0a20,20,0,0,0-28.28,0l-120,120-49.73-49.73a20,20,0,0,0-28.28,28.28l63.87,63.88a20,20,0,0,0,28.28,0L631.16,447.05A20,20,0,0,0,631.16,418.77Zm0,0a20,20,0,0,0-28.28,0l-120,120-49.73-49.73a20,20,0,0,0-28.28,28.28l63.87,63.88a20,20,0,0,0,28.28,0L631.16,447.05A20,20,0,0,0,631.16,418.77Z" transform="translate(-262 -244)"/><path class="b" d="M518,244c-141.48,0-256,114.5-256,256S376.5,756,518,756,774,641.5,774,500,659.5,244,518,244Zm0,472A216,216,0,1,1,734,500,215.88,215.88,0,0,1,518,716Z" transform="translate(-262 -244)"/></svg>