<svg xmlns="http://www.w3.org/2000/svg" viewBox="0 0 477.87 512"><defs><style>.a{fill:#5166dd;}.b{fill:#fff;}.c{fill:#e2e2e2;}.d{fill:#fcaea2;}.e{fill:#efefef;}</style></defs><path class="a" d="M469.33,512H8.53C3.41,512,0,508.59,0,503.47s3.41-8.54,8.53-8.54h460.8c5.12,0,8.54,3.42,8.54,8.54S474.45,512,469.33,512Z"/><path class="a" d="M409.6,512H68.27c-5.12,0-8.54-3.41-8.54-8.53V8.53C59.73,3.41,63.15,0,68.27,0H409.6c5.12,0,8.53,3.41,8.53,8.53V503.47C418.13,508.59,414.72,512,409.6,512ZM76.8,494.93H401.07V17.07H76.8Z"/><path class="a" d="M375.47,512H102.4c-5.12,0-8.53-3.41-8.53-8.53V42.67c0-5.12,3.41-8.54,8.53-8.54H375.47c5.12,0,8.53,3.42,8.53,8.54v460.8C384,508.59,380.59,512,375.47,512ZM110.93,494.93h256V51.2h-256Z"/><path class="a" d="M341.33,298.67H307.2c-5.12,0-8.53-3.42-8.53-8.54V256c0-5.12,3.41-8.53,8.53-8.53h34.13c5.12,0,8.54,3.41,8.54,8.53v34.13C349.87,295.25,346.45,298.67,341.33,298.67Zm-25.6-17.07H332.8V264.53H315.73Z"/><path class="a" d="M307.2,281.6H281.6c-5.12,0-8.53-3.41-8.53-8.53s3.41-8.54,8.53-8.54h25.6c5.12,0,8.53,3.42,8.53,8.54S312.32,281.6,307.2,281.6Z"/><path class="b" d="M136.65,294.88l-40.5-4.5L28.74,328.3a9,9,0,0,0-4.59,7.85V492.88h225V336.15a9,9,0,0,0-4.59-7.85l-67.41-37.92Z"/><path class="c" d="M175.22,290.6l-38.57,94.28L98.08,290.6l38.57,4.28Z"/><path class="d" d="M98.08,290.59l-1.93-.21L73.65,303v38.33A9,9,0,0,0,81,350.23l44.76,8.13L98.08,290.59Z"/><path class="d" d="M127.48,362.47,91.77,380.32a9,9,0,0,0-3.46,13l48.34,72.52v-81Z"/><path class="d" d="M175.22,290.59l1.93-.21L199.65,303v38.33a9,9,0,0,1-7.39,8.86l-44.76,8.13,27.72-67.77Z"/><path class="d" d="M145.82,362.47l35.71,17.85a9,9,0,0,1,3.47,13l-48.35,72.52v-81Z"/><path class="e" d="M115.79,281l20.86,13.91L126,309.09a4.5,4.5,0,0,1-6.48.76L96.15,290.38l8.28-8.28A9,9,0,0,1,115.79,281Z"/><path class="e" d="M157.51,281l-20.86,13.91,10.66,14.21a4.5,4.5,0,0,0,6.48.76l23.36-19.47-8.28-8.28A9,9,0,0,0,157.51,281Z"/><path class="a" d="M253.65,492.88V336.15a13.5,13.5,0,0,0-6.88-11.77L179.9,286.77l-7.85-7.85a13.53,13.53,0,0,0-17-1.69l-13.86,9.24V267.88h4.5a13.52,13.52,0,0,0,13.5-13.5v-9a22.5,22.5,0,0,0-45,0v9h9v-9a13.5,13.5,0,0,1,27,0v9a4.51,4.51,0,0,1-4.5,4.5h-5a8.54,8.54,0,0,0-8.53,8.53v19.06l-13.86-9.24a13.55,13.55,0,0,0-17,1.69l-7.85,7.85L26.53,324.38a13.5,13.5,0,0,0-6.88,11.77V492.88h9V336.15a4.51,4.51,0,0,1,2.3-3.93l38.2-21.49v30.64a13.49,13.49,0,0,0,11.09,13.28l38.72,7-29.2,14.6a13.51,13.51,0,0,0-5.2,19.57l44.6,66.9a9,9,0,0,0,15,0l44.6-66.9a13.52,13.52,0,0,0-5.19-19.57l-29.21-14.6,38.72-7a13.48,13.48,0,0,0,11.09-13.28V310.73l38.21,21.49a4.52,4.52,0,0,1,2.29,3.93V492.88ZM136.65,373,110,307.75l6.67,5.56a9,9,0,0,0,13-1.52l7.06-9.41,7.06,9.42a9,9,0,0,0,13,1.51l6.67-5.56ZM160,284.71a4.53,4.53,0,0,1,5.68.57l4.79,4.8-19.57,16.31L143.1,296Zm-52.4.57a4.53,4.53,0,0,1,5.68-.57L130.2,296l-7.81,10.4-19.57-16.31ZM78.15,341.37v-35.7L95.41,296l23.12,56.51L81.85,345.8a4.5,4.5,0,0,1-3.7-4.43Zm13.9,49.5a4.5,4.5,0,0,1-.61-3.65,4.56,4.56,0,0,1,2.34-2.88l31.37-15.68,7,17.11V451Zm89.81-3.66a4.51,4.51,0,0,1-.61,3.66L141.15,451V385.77l7-17.11,31.37,15.68a4.49,4.49,0,0,1,2.34,2.87Zm13.29-45.84a4.49,4.49,0,0,1-3.7,4.43l-36.68,6.67L177.89,296l17.26,9.71Z"/></svg>