<svg xmlns="http://www.w3.org/2000/svg" viewBox="0 0 512 294.34"><defs><style>.a{fill:#5667af;}.b{fill:#f8ada2;}.c{fill:#f7ada2;}</style></defs><path class="a" d="M369.08,250.06a5.61,5.61,0,0,1-5.61-5.61V5.61a5.61,5.61,0,0,1,11.22,0V244.45a5.61,5.61,0,0,1-5.61,5.61Z"/><path class="a" d="M369.08,238.84H204.49a5.61,5.61,0,1,0,0,11.22H369.08a5.61,5.61,0,1,0,0-11.22Z"/><path class="a" d="M495.85,179.45H78.77A16.17,16.17,0,0,0,62.62,195.6v32.21a22.27,22.27,0,0,0,22.24,22.25,5.61,5.61,0,0,0,0-11.22,11,11,0,0,1-11-11V195.6a5,5,0,0,1,4.94-4.94H495.85a4.94,4.94,0,0,1,4.93,4.94v32.21a11,11,0,0,1-11,11,5.61,5.61,0,0,0,0,11.22A22.27,22.27,0,0,0,512,227.81V195.6a16.16,16.16,0,0,0-16.15-16.15Z"/><path class="a" d="M143.33,194.56a49.89,49.89,0,1,0,49.89,49.89,49.95,49.95,0,0,0-49.89-49.89Zm0,88.56A38.67,38.67,0,1,1,182,244.45a38.71,38.71,0,0,1-38.68,38.67Z"/><path class="a" d="M143.33,214.38a30.07,30.07,0,1,0,30.07,30.07,30.1,30.1,0,0,0-30.07-30.07Zm0,48.92a18.85,18.85,0,1,1,18.85-18.85,18.88,18.88,0,0,1-18.85,18.85Z"/><path class="a" d="M431.68,194.56a49.89,49.89,0,1,0,49.9,49.89,49.94,49.94,0,0,0-49.9-49.89Zm0,88.56a38.67,38.67,0,1,1,38.68-38.67,38.71,38.71,0,0,1-38.68,38.67Z"/><path class="a" d="M431.68,214.38a30.07,30.07,0,1,0,30.08,30.07,30.1,30.1,0,0,0-30.08-30.07Zm0,48.92a18.85,18.85,0,1,1,18.86-18.85,18.88,18.88,0,0,1-18.86,18.85Z"/><path class="a" d="M510.6,110.2,474.21,26.89s0,0,0,0l-5.85-13.39A22.5,22.5,0,0,0,447.74,0H85.09A22.5,22.5,0,0,0,62.62,22.48V170.29a5.61,5.61,0,1,0,11.21,0V22.48A11.27,11.27,0,0,1,85.09,11.22H447.74A11.24,11.24,0,0,1,458.06,18l2.41,5.48H401.68a5.61,5.61,0,0,0-5.61,5.61v75.76a5.61,5.61,0,0,0,5.61,5.61h96.78l1.86,4.26a5.38,5.38,0,0,1,.46,2.19V121H465.62a5.61,5.61,0,0,0-5.6,5.61v34.29a5.6,5.6,0,0,0,5.6,5.61h35.16v3.76a5.61,5.61,0,0,0,11.22,0V116.88a16.61,16.61,0,0,0-1.4-6.68Zm-103.31-11V34.67h58.07l28.2,64.54Zm63.94,56.11V132.24h29.55v23.08Z"/><path class="b" d="M41.91,71.2H29.31a5.61,5.61,0,1,1,0-11.22h12.6a5.61,5.61,0,1,1,0,11.22Z"/><path class="b" d="M89.55,71.2H62A5.61,5.61,0,0,1,62,60H89.55a5.61,5.61,0,0,1,0,11.22Z"/><path class="b" d="M81.2,106h-60a5.61,5.61,0,1,1,0-11.22h60a5.61,5.61,0,0,1,0,11.22Z"/><path class="b" d="M26.55,140.88H5.61a5.61,5.61,0,1,1,0-11.21H26.55a5.61,5.61,0,1,1,0,11.21Z"/><path class="b" d="M76.6,140.88H45.14a5.61,5.61,0,1,1,0-11.21H76.61a5.61,5.61,0,0,1,0,11.21Z"/><path class="b" d="M336,152.41H202a5.61,5.61,0,0,1,0-11.22H336a5.61,5.61,0,0,1,0,11.22Z"/><path class="c" d="M327.85,94.26l-55-31.86V60a7.51,7.51,0,0,1,4-6.56,16.57,16.57,0,1,0-24.45-14.59,3.86,3.86,0,0,0,7.71,0A8.87,8.87,0,0,1,269.36,30a8.87,8.87,0,0,1,3.87,16.67A15.2,15.2,0,0,0,265.16,60V62.4l-55,31.86a13.84,13.84,0,0,0,6.94,25.82H320.91a13.84,13.84,0,0,0,6.94-25.82Zm-6.94,18.12H217.12A6.14,6.14,0,0,1,214,100.93l55-31.86,55,31.86a6.14,6.14,0,0,1-3.08,11.45Z"/></svg>