<svg xmlns="http://www.w3.org/2000/svg" viewBox="0 0 512 506.87"><defs><style>.a{fill:#f8ada2;}.b{fill:#5667af;}</style></defs><path class="a" d="M593.34,452.4l-5.79-15.47c-5.17,1.94-10.43,3.72-15.61,5.28L576.71,458c5.52-1.66,11.12-3.56,16.63-5.62Zm0,0" transform="translate(-244 -246.56)"/><path class="a" d="M541.29,488.36v-22.2c6.13-1,12.28-2.19,18.38-3.59L556,446.47c-8,1.86-16,3.31-24,4.36l-7.2.95v36.59c0,2.21.05,4.42.17,6.61l16.5-.84c-.1-1.93-.15-3.84-.15-5.78Zm0,0" transform="translate(-244 -246.56)"/><path class="a" d="M392.65,345.66a49.55,49.55,0,1,0,49.54,49.55,49.6,49.6,0,0,0-49.54-49.55Zm0,82.58a33,33,0,1,1,33-33,33.07,33.07,0,0,1-33,33Zm0,0" transform="translate(-244 -246.56)"/><path class="b" d="M611.3,393.46l-3.93-2.14-3.94,2.14A220.66,220.66,0,0,1,500,420l-8.21.06v68.33A171.41,171.41,0,0,0,604.54,649l2.81,1,2.82-1A171.41,171.41,0,0,0,723,488.36V420l-8.21-.06A220.67,220.67,0,0,1,611.3,393.46Zm95.15,94.9a154.84,154.84,0,0,1-99.1,144.07,154.86,154.86,0,0,1-99.09-144.07V436.3a237.66,237.66,0,0,0,99.11-26.24,237.56,237.56,0,0,0,99.08,26.24Zm0,0" transform="translate(-244 -246.56)"/><path class="a" d="M574.32,499.15,537.87,535.6l53,53L693.35,486.05,656.9,449.6l-66.06,66.06ZM670,486.05l-79.16,79.16L561.23,535.6l13.09-13.1L590.84,539,656.9,473Zm0,0" transform="translate(-244 -246.56)"/><path class="b" d="M756,387H716.12a186.92,186.92,0,0,1-104.23-31.68L607,352.46l-4.55,3a186.74,186.74,0,0,1-61.2,26.5v-18.1l-21.76-5.12a130.63,130.63,0,0,0-11.41-27.51l11.78-19L475.61,268l-19,11.78a131.77,131.77,0,0,0-27.52-11.41L424,246.56H361.33l-5.12,21.76a131.77,131.77,0,0,0-27.52,11.41l-19-11.78-44.29,44.29,11.78,19a130.63,130.63,0,0,0-11.41,27.51L244,363.89v62.64l21.76,5.12a130.63,130.63,0,0,0,11.41,27.51l-11.78,19,44.29,44.29,19-11.78a131.77,131.77,0,0,0,27.52,11.41l5.12,21.76H424l5.12-21.76a131.77,131.77,0,0,0,27.52-11.41l3.8,2.35a204.31,204.31,0,0,0,39.19,97.28L471.81,712.19,512.59,702l30.86,51.44,27.68-83.07A200.72,200.72,0,0,0,605,683.89l2.32.7,2.33-.69a200.28,200.28,0,0,0,33.89-13.53l27.69,83.07L702.12,702l40.78,10.2L715.12,610.33a203.62,203.62,0,0,0,40.88-122ZM456.78,491.38,452.46,494a114.52,114.52,0,0,1-32.23,13.35l-4.92,1.21-4.43,18.77H374.41L370,508.57l-4.92-1.21A114.52,114.52,0,0,1,332.84,494l-4.32-2.63-16.4,10.15-25.79-25.79,10.15-16.4L293.86,455a114,114,0,0,1-13.36-32.23l-1.2-4.92-18.78-4.43V377l18.77-4.42,1.21-4.93a114.79,114.79,0,0,1,13.34-32.23l2.63-4.31-10.15-16.41,25.79-25.79L328.51,299l4.32-2.63a114.52,114.52,0,0,1,32.23-13.35l4.92-1.21,4.43-18.77h36.47l4.42,18.77,4.92,1.21a114.52,114.52,0,0,1,32.23,13.35l4.32,2.63,16.4-10.15L499,314.68l-10.15,16.4,2.62,4.32a114,114,0,0,1,13.36,32.23l1.2,4.92L524.77,377v8.11A189.92,189.92,0,0,1,498.59,387h-7.27a99.15,99.15,0,1,0-32.61,82v19.4c0,1.45.15,2.88.18,4.32ZM458.71,387v57.64A82.47,82.47,0,1,1,474.81,387Zm80.42,327.2L520.45,683l-25.29,6.31,17.33-63.57a204.35,204.35,0,0,0,44,36.41Zm180.42-24.83L694.26,683l-18.69,31.14-17.32-52a204.59,204.59,0,0,0,44-36.41Zm19.93-201c0,81.7-54.2,155-132.13,179-77.92-24-132.12-97.3-132.12-179V403.47h23.36A203.18,203.18,0,0,0,607.34,372a203.07,203.07,0,0,0,108.78,31.45h23.36Zm0,0" transform="translate(-244 -246.56)"/></svg>