<svg xmlns="http://www.w3.org/2000/svg" viewBox="0 0 512 512"><defs><style>.a{fill:#5667af;}.b{fill:#f8ada2;}</style></defs><path class="a" d="M482,292.25V46a15,15,0,0,0-15-15H391V15a15,15,0,0,0-30,0V31H301V15a15,15,0,0,0-30,0V31H211V15a15,15,0,0,0-30,0V31H121V15a15,15,0,0,0-30,0V31H15A15,15,0,0,0,0,46V437a15,15,0,0,0,15,15H264.8A135,135,0,0,0,377,512c74.44,0,135-60.56,135-135a134.37,134.37,0,0,0-30-84.75ZM91,61V76a15,15,0,0,0,30,0V61h60V76a15,15,0,0,0,30,0V61h60V76a15,15,0,0,0,30,0V61h60V76a15,15,0,0,0,30,0V61h61v60H30V61ZM30,422V151H452V264.8a134.85,134.85,0,0,0-188.26,38.81A15,15,0,0,0,257,302H227a15,15,0,0,0,0,30h22.72a134,134,0,0,0-6.88,30H227a15,15,0,0,0,0,30h15.84a133.62,133.62,0,0,0,6.88,30Zm347,60A105,105,0,1,1,482,377,105.12,105.12,0,0,1,377,482Z"/><path class="b" d="M437,362H392V317a15,15,0,0,0-30,0v60a15,15,0,0,0,15,15h60a15,15,0,0,0,0-30Z"/></svg>