<svg xmlns="http://www.w3.org/2000/svg" xmlns:xlink="http://www.w3.org/1999/xlink" viewBox="0 0 511.51 521.53"><defs><style>.a{fill:none;}.b{clip-path:url(#a);}.c{fill:#5667af;}.d{fill:#f8ada2;}</style><clipPath id="a" transform="translate(-244.49 -239.24)"><rect class="a" x="244" y="239.24" width="512" height="521.53"/></clipPath></defs><g class="b"><path class="c" d="M707.94,371.78h-47.1V255a12.16,12.16,0,0,0-16.15-11.21l-102,36.15-37.57-37.22a11.9,11.9,0,0,0-16.79,0L400.46,330.6,281.51,373.19a47.86,47.86,0,0,0-37,46.32V713.68c0,26.23,21.84,47.08,48.07,47.08H707.94c26.23,0,48.06-20.85,48.06-47.08V419.51c0-26.24-21.83-47.73-48.06-47.73Zm-70.89-100v100h-1.53L561.6,298.41Zm-140.27-4,104.94,104h-209Zm-137.66,104H355.7l5.34-1.92ZM707.94,737H292.56c-13.12,0-24.28-10.17-24.28-23.29V419.51c0-13.11,11.16-23.94,24.28-23.94H707.94c13.12,0,24.27,10.83,24.27,23.94v59.33H649.58a58.77,58.77,0,0,0-58.93,58.6v57.81c0,32.79,26.14,59.64,58.93,59.64h82.63v58.79c0,13.12-11.15,23.29-24.27,23.29Zm24.27-234.34V631.1H649.58c-19.67,0-35.13-16.18-35.13-35.85V537.94A34.94,34.94,0,0,1,649,502.63Zm0,0" transform="translate(-244.49 -239.24)"/></g><path class="d" d="M636.14,567a37.77,37.77,0,1,0,37.77-37.77A37.78,37.78,0,0,0,636.14,567Zm37.77-14a14,14,0,1,1-14,14,14,14,0,0,1,14-14Zm0,0" transform="translate(-244.49 -239.24)"/><path class="d" d="M456.73,488.19v6.5a42.52,42.52,0,0,0-36.4,42v6.07a42.52,42.52,0,0,0,42.46,42.45h24.26a6.07,6.07,0,0,1,6.07,6.07v6.06a6.07,6.07,0,0,1-6.07,6.07H462.79a6.06,6.06,0,0,1-6.06-6.07V591.3h-36.4v6.06a42.53,42.53,0,0,0,36.4,42v6.49a18.2,18.2,0,1,0,36.39,0v-6.49a42.52,42.52,0,0,0,36.39-42V591.3a42.51,42.51,0,0,0-42.46-42.46H462.79a6.06,6.06,0,0,1-6.06-6.06v-6.07a6.06,6.06,0,0,1,6.06-6.06h24.26a6.06,6.06,0,0,1,6.07,6.06v6.07h36.39v-6.07a42.52,42.52,0,0,0-36.39-42v-6.5a18.2,18.2,0,1,0-36.39,0Zm24.26,0v18.2h6.06a30.36,30.36,0,0,1,29.71,24.26H504.21a18.24,18.24,0,0,0-17.16-12.13H462.79a18.21,18.21,0,0,0-18.19,18.19v6.07A18.21,18.21,0,0,0,462.79,561h24.26a30.37,30.37,0,0,1,30.33,30.33v6.06a30.36,30.36,0,0,1-30.33,30.33H481v18.19a6.07,6.07,0,1,1-12.13,0V627.69h-6.07a30.37,30.37,0,0,1-29.71-24.26h12.55a18.24,18.24,0,0,0,17.16,12.13h24.26a18.22,18.22,0,0,0,18.2-18.2V591.3a18.23,18.23,0,0,0-18.2-18.2H462.79a30.35,30.35,0,0,1-30.32-30.32v-6.07a30.35,30.35,0,0,1,30.32-30.32h6.07v-18.2a6.07,6.07,0,0,1,12.13,0Zm0,0" transform="translate(-244.49 -239.24)"/></svg>