<svg xmlns="http://www.w3.org/2000/svg" viewBox="0 0 512 512"><defs><style>.a{fill:#518cdd;}.b{fill:#5166dd;}.c{fill:#fcaea2;}</style></defs><path class="a" d="M409.19,566.06H351.38v66.06h66.07V566.06H434V277H681.71V747.74h24.77V252.25H409.19ZM252.08,633.18" transform="translate(-244 -244)"/><path class="a" d="M649.68,500a24.78,24.78,0,1,1-24.78-24.77A24.77,24.77,0,0,1,649.68,500Zm0,0" transform="translate(-244 -244)"/><path class="b" d="M626.11,467a33.1,33.1,0,0,0-32,24.77h-9.3a8.26,8.26,0,0,0,0,16.52h9.3a33,33,0,1,0,32-41.29Zm0,49.55a16.53,16.53,0,0,1-14.28-8.26h14.28a8.26,8.26,0,0,0,0-16.52H611.83a16.51,16.51,0,1,1,14.28,24.78Zm0,0" transform="translate(-244 -244)"/><path class="b" d="M747.74,739.48h-33V252.26a8.26,8.26,0,0,0-8.26-8.26H409.16a8.26,8.26,0,0,0-8.26,8.26V557.81H293.55a8.26,8.26,0,0,0-8.26,8.25V739.48h-33a8.26,8.26,0,0,0,0,16.52H747.74a8.26,8.26,0,0,0,0-16.52ZM359.61,574.32h49.55v49.55H359.61ZM467,739.48H301.81V574.32H343.1v57.81a8.26,8.26,0,0,0,8.25,8.26h66.07a8.26,8.26,0,0,0,8.26-8.26V574.32H467Zm206.45,0H483.48V566.06a8.26,8.26,0,0,0-8.25-8.25h-33V285.29H673.42Zm24.77,0h-8.25V277a8.26,8.26,0,0,0-8.26-8.26H433.94a8.26,8.26,0,0,0-8.26,8.26V557.81h-8.26V260.52H698.19Zm0,0" transform="translate(-244 -244)"/><path class="c" d="M282.36,535.78a16.22,16.22,0,0,0,4.56,11.32,15.33,15.33,0,0,0,11,4.69h97.54v-10.6H296.91a5.36,5.36,0,0,1-5.27-5.41,5.48,5.48,0,0,1,1.55-3.83,5.18,5.18,0,0,1,3.72-1.59h98.58V519.77H298A15.79,15.79,0,0,0,282.36,535.78Z" transform="translate(-244 -244)"/><path class="c" d="M323.93,506a11.19,11.19,0,0,0,2.89,7.57,9.44,9.44,0,0,0,7,3.14h61.7V509.6H333.14A3.5,3.5,0,0,1,329.8,506a3.8,3.8,0,0,1,1-2.56,3.19,3.19,0,0,1,2.36-1.07h62.35v-7.09h-61.7C328.34,495.26,323.93,500.06,323.93,506Z" transform="translate(-244 -244)"/></svg>