<svg xmlns="http://www.w3.org/2000/svg" viewBox="0 0 563.04 186.41"><defs><style>.a,.b,.c{fill:#fff;}.b{stroke:#5166dd;stroke-miterlimit:10;stroke-width:2px;}.c{font-size:72px;font-family:Lobster1.3, "Lobster 1.3";letter-spacing:0.06em;}</style></defs><path class="a" d="M216.37,130.37l-19.21-109a26,26,0,0,0-30-21L87.28,14.49A25.94,25.94,0,0,0,66.45,34.73L0,37.26l65.91,2.53a26.31,26.31,0,0,0,.38,4.66L69.8,64.33,26.47,66.77l44.2,2.49L76,99.48l-53.36,2.41,54.22,2.45,3.26,18.52-65.64,2.5L81,127.91l2.07,11.7-38.51,2.51L84,144.7l1.55,8.74a25.56,25.56,0,0,0,3.23,8.71l-61.42,2.42,65.32,2.58a26.13,26.13,0,0,0,9.87,6.22C105,182,112.9,187.62,121,186.19c7.11-1.26,12.22-7.52,13-15.05l39.11-6.89c3.29,6.81,10.23,10.94,17.34,9.69,7.57-1.34,12.87-8.35,13.07-16.53A25.94,25.94,0,0,0,216.37,130.37ZM174.29,14.66a5.76,5.76,0,1,1-5.75,5.76A5.76,5.76,0,0,1,174.29,14.66Zm-22.74,4.1a5.76,5.76,0,1,1-5.75,5.76A5.76,5.76,0,0,1,151.55,18.76ZM84.81,32.52l23.85-4.2A5.51,5.51,0,0,1,115,32.78l.18,1a5.52,5.52,0,0,1-4.46,6.38L86.9,44.37a5.52,5.52,0,0,1-6.38-4.47l-.18-1A5.54,5.54,0,0,1,84.81,32.52Zm35,146.74c-5.07.9-10-3-11-8.68s2.29-11,7.37-11.93,10,3,11,8.69S124.86,178.37,119.78,179.26ZM189.21,167c-5.07.89-10-3-11-8.68s2.29-11,7.37-11.93,10,3,11,8.69S194.29,166.13,189.21,167Zm12.55-18.39c-3.22-7-10.29-11.35-17.53-10.08-7.6,1.35-12.91,8.43-13.07,16.64L132.78,162c-2.95-7.66-10.36-12.5-18-11.16-6.7,1.19-11.63,6.82-12.8,13.77A18,18,0,0,1,91,151L81.91,99.23v0h0L75,60.25l119.32-21,16,90.74A18.05,18.05,0,0,1,201.76,148.63Z"/><path class="b" d="M175.76,104.33c-.06,19-15,34.34-33.37,34.34-18.22,0-33-15.06-33.36-33.78,2.06,2.72,5.11,5.78,8.81,5.77,5.08,0,6.59-5.79,11.8-6,5.62-.16,7.15,6.52,12.63,6.2,5.1-.29,5.83-6.16,11-6.39,5-.22,6.62,5.14,11.91,5.52C169.49,110.36,173.26,107.11,175.76,104.33Z"/><path class="b" d="M109,105.15a8.82,8.82,0,0,1,0-.89c0-19,15-34.45,33.38-34.45s33.39,15.43,33.39,34.45v.17"/><circle class="a" cx="117.87" cy="100.93" r="3.31"/><circle class="a" cx="122.78" cy="87.48" r="1.6"/><circle class="a" cx="126.83" cy="93.67" r="2.45"/><text class="c" transform="translate(233.72 115.7)">Wash.Hub</text></svg>