<svg xmlns="http://www.w3.org/2000/svg" xmlns:xlink="http://www.w3.org/1999/xlink" viewBox="0 0 1000 1000"><defs><style>.a,.z{fill:#272e65;}.b{isolation:isolate;}.c{fill:#495ace;}.d{fill:#3b499d;}.e{fill:#768cf9;}.f{fill:#181f3c;}.g{fill:#4f61e1;}.h{fill:#feb3a9;}.i{fill:#252e67;}.j{fill:#38469f;}.k{fill:#141e4f;}.l{fill:#38469e;}.m{fill:#1a2456;}.n{fill:#161f4a;}.o{fill:none;}.p{fill:#fd967d;}.q{fill:#7e8bef;}.r{fill:#5060e0;}.s{fill:#fff;}.t{fill:#3345a1;}.u{fill:#112049;}.v{fill:#201d40;}.w{fill:#7e4922;}.x{fill:#884922;}.y{fill:#f37a50;}.z{opacity:0.53;mix-blend-mode:overlay;}.aa{opacity:0.37;mix-blend-mode:multiply;}.ab{clip-path:url(#a);}</style><clipPath id="a"><path class="a" d="M322.26,397.57A134,134,0,0,0,299.53,368l0,0s-32.79-23.34-67.86-36.92c0,0-19.13,9.23-48.73,9.23s-48.73-9.23-48.73-9.23C99.16,344.64,66.37,368,66.37,368A134.25,134.25,0,0,0,43.6,397.57c-12.7,22.22-22.77,38.82-22.77,38.82s28.24,9.23,45.54,63c0,0,18.78-2.78,23.74-8.17.46,19.54.09,38.31.4,56.08.91,52.8-5.46,204.55-5.46,204.55s68.31-3.89,108.64-3.89c37.86,0,87.19,3.89,87.19,3.89s-6.38-151.75-5.47-204.55c.31-17.75-.05-36.5.41-56,5,5.36,23.67,8.12,23.67,8.12,17.3-53.75,45.54-63,45.54-63S335,419.79,322.26,397.57Z"/></clipPath></defs><g class="b"><path class="c" d="M39,82.5V802.25H324.47V82.5Zm99.35,170.05H78.53V127h59.8Zm74.5,0H153V127h59.8Zm74.5,0h-59.8V127h59.8Z"/><circle class="d" cx="93.11" cy="424.61" r="14.08"/><path class="e" d="M613.05,19.66H1000a0,0,0,0,1,0,0V852.44a0,0,0,0,1,0,0H588.72a54.65,54.65,0,0,1-54.65-54.65V98.65A79,79,0,0,1,613.05,19.66Z"/><path class="f" d="M598,852.44H723.86a0,0,0,0,1,0,0V934.6a33.24,33.24,0,0,1-33.24,33.24H631.23A33.24,33.24,0,0,1,598,934.6V852.44A0,0,0,0,1,598,852.44Z"/><rect class="g" x="534.07" y="761.18" width="465.93" height="3"/><rect class="h" x="626.25" y="790.22" width="61.18" height="30.22"/><path class="i" d="M614.26,39.65H1000a0,0,0,0,1,0,0v706.4a0,0,0,0,1,0,0H553.45a0,0,0,0,1,0,0V100.46a60.81,60.81,0,0,1,60.81-60.81Z"/><rect class="j" x="553.45" y="108.5" width="446.55" height="18.52"/><path class="k" d="M581.82,236.68a9.62,9.62,0,0,0,9.3,7H797.31a11,11,0,0,0,5.78-20.4c-21.18-13-62.46-34.46-104.62-35V150.61c0-.25.1-6.33,4-6.57A16.49,16.49,0,0,0,714,138.19a17.9,17.9,0,0,0,4.39-12.74c-1-11.08-8.75-18.25-19.67-18.25-4.45,0-10.49,2.06-14,11.86a41.65,41.65,0,0,0-2.14,10.78,2.89,2.89,0,1,0,5.78.25c0-.2.9-17.1,10.32-17.1,7.84,0,13.16,5,13.9,13a12.08,12.08,0,0,1-3,8.43,10.66,10.66,0,0,1-7.48,3.85c-7.5.45-9.47,8.27-9.47,12.34v37.72c-44.07,1.37-85.7,24-106.8,37.47A9.61,9.61,0,0,0,581.82,236.68Zm8.81-3.48c20.68-13.24,61.76-35.55,104.49-36.15h1.64c40.61,0,81.07,21,101.73,33.7a2.07,2.07,0,0,1,1,2.48,2.14,2.14,0,0,1-2.15,1.64H591.12a.9.9,0,0,1-.49-1.66Z"/><path class="l" d="M623.44,203.56s32.12,28.65,78.42,26.91,68.29-24.88,68.29-24.88,36.46,18.52,44,28.93,11,116.91,11,116.91-17.94,6.94-36.46,6.36l-7.52-22.57L804,713.81s-28.21,1.15-45.18-8.58c-16.36-9.38-41,3.11-63,6.07s-34.62-13.79-56.22-6.84c-33.7,10.83-59.8,4.63-59.8,4.63l34.69-375L605,356.07s-32.24,0-42.66-11c0,0,12.35-113.24,19.29-120.18S623.44,203.56,623.44,203.56Z"/><path class="i" d="M758.14,274.68l-4.46,5.8A10.75,10.75,0,0,1,758.14,274.68Z"/><path class="m" d="M752.12,236.68a9.62,9.62,0,0,0,9.3,7H967.61a11,11,0,0,0,5.78-20.4c-21.17-13-62.45-34.46-104.62-35V150.61c0-.25.1-6.33,4-6.57a16.49,16.49,0,0,0,11.53-5.85,17.9,17.9,0,0,0,4.39-12.74c-1-11.08-8.75-18.25-19.67-18.25-4.45,0-10.49,2.06-14,11.86A41.65,41.65,0,0,0,853,129.84a2.89,2.89,0,1,0,5.78.25c0-.2.9-17.1,10.32-17.1,7.84,0,13.16,5,13.9,13a12.11,12.11,0,0,1-3,8.43,10.7,10.7,0,0,1-7.49,3.85c-7.49.45-9.47,8.27-9.47,12.34v37.72c-44.07,1.37-85.7,24-106.8,37.47A9.62,9.62,0,0,0,752.12,236.68Zm8.81-.62c20.68-13.25,61.76-35.55,104.5-36.16h1.63c40.61,0,81.07,21.05,101.74,33.71a2.06,2.06,0,0,1,1,2.47,2.13,2.13,0,0,1-2.15,1.64H761.42a.82.82,0,0,1-.87-.65A.81.81,0,0,1,760.93,236.06Z"/><path class="l" d="M977.41,283.75v349a10.85,10.85,0,0,1-10.9,10.8H762.36a10.84,10.84,0,0,1-10.89-10.8v-349c0-1.14-.08-25,.25-26V221l66.75-26.37c0,.38,0,.77,0,1.15a46,46,0,0,0,91.95,0c0-.36,0-.71,0-1.07l68.24,24.13-1.23,59.39C977.72,279.18,977.41,282.66,977.41,283.75Z"/><path class="n" d="M598,610.42l-4.63-6.71A11.87,11.87,0,0,1,598,610.42Z"/><path class="n" d="M732.52,510.85c-5.83-13.06-.93-30,7.42-39.36,11.1-12.43,27.45-10.51,46.43-8.29,16.23,1.9,22.48,6.9,24.14,8.29,7,5.91,15.73,18,13,29-1.84,7.41-8.06,10.89-18.56,16.57-14.82,8-32.46,17.53-52,10.36C747.65,525.48,737.36,521.7,732.52,510.85Z"/><path class="n" d="M755.68,500.83c1.92,5,20.41,8.88,98.57,2,1.61-19-5.73-34.75-19.17-38.32-9.58-2.55-19.54,1.83-38.33,10.08C781.42,481.34,753,493.83,755.68,500.83Z"/><path class="n" d="M756.43,403.77c2.24-1.26,5.33.76,9.87,4.25,6.2,4.78,14.92,12.58,24.73,25.33a190.5,190.5,0,0,1-22.63,46.2c-6.44,9.56-12.11,17.81-21.82,25.15-5.31,4-30.6,23.61-48.67,10.79-10.16-7.22-15.2-22.67-13.33-35.17,1.95-13,11-20.49,28.76-35.06a70.23,70.23,0,0,1,16.82-10.45c1.86-.8,3.43-1.37,4.54-1.75,5.26,1.09,12,1.47,15.89-2.84C757.32,422.82,751.28,406.67,756.43,403.77Z"/><path class="n" d="M700.29,462.34c-8.81-5.61-27.13-15.16-48.73-10.87-7.89,1.56-18.61,3.69-24.36,13.59-7.49,12.89-3.06,33,7.31,43.48,10.19,10.34,23.82,9.09,34.11,8.15,16.23-1.48,28.12-9.08,34.1-13.59"/><path class="n" d="M637.2,504.82c26.45-1.53,63.55-3,109.12-2.66,13.3-12.13,14.71-26.63,4.12-35.92-7.3-6.4-22.16-12-32.94-9.31s-7.35,10.79-20.59,17.29c-10.44,5.13-23,5.22-37.06,5.32-19.79.15-19.46-3.27-37.06-2.66-19,.66-39.11,5.33-39.11,5.33h0s-16.22,13.86-12.36,20C575.8,509.21,607.57,506.54,637.2,504.82Z"/><polygon class="n" points="854.92 502.14 552.93 502.72 593.83 746.22 810.61 746.22 854.92 502.14"/><rect class="n" x="592.94" y="597.04" width="222.79" height="9.49" rx="4.26"/><rect class="n" x="632.82" y="683.28" width="143.04" height="9.49" rx="4.26"/><rect class="n" x="616.57" y="642.08" width="175.53" height="9.49" rx="4.26"/><path class="n" d="M738.49,566.66l-5.72,150a4.47,4.47,0,0,1-4.43,4.53h0a4.59,4.59,0,0,1-4.07-4.94L730,566.26a4.48,4.48,0,0,1,4.42-4.54h0A4.58,4.58,0,0,1,738.49,566.66Z"/><path class="n" d="M684.24,566.47l19,148.58a4.7,4.7,0,0,1-3.61,5.37h0a4.37,4.37,0,0,1-4.81-4l-19-148.58a4.7,4.7,0,0,1,3.61-5.36h0A4.36,4.36,0,0,1,684.24,566.47Z"/><path class="n" d="M658.25,713,640.4,616.59a4.78,4.78,0,0,1,3.31-5.61h0a4.3,4.3,0,0,1,5,3.69l17.85,96.38a4.76,4.76,0,0,1-3.3,5.6h0A4.3,4.3,0,0,1,658.25,713Z"/><path class="n" d="M759.07,724.11l17.85-96.38a4.78,4.78,0,0,0-3.31-5.61h0a4.3,4.3,0,0,0-5,3.69l-17.85,96.38a4.77,4.77,0,0,0,3.3,5.6h0A4.3,4.3,0,0,0,759.07,724.11Z"/><rect class="n" x="667.13" y="525.39" width="74.41" height="31.38" rx="13.84"/><path class="n" d="M764.88,589.45l-5.28-7.64A13.49,13.49,0,0,1,764.88,589.45Z"/><path class="n" d="M992.31,488c-14.92,7.53-31.92,13.81-50.41,7.05-5.59-2-16-5.87-22-16.17a29.25,29.25,0,0,1-1.37-2.68,33.16,33.16,0,0,1-2.62-9.63l0-.3c-1.45-12.72,3.62-26.47,11.14-34.85a31.11,31.11,0,0,1,10-7.53c9.59-4.55,21.25-4.21,34.23-2.89,2.86.3,5.79.64,8.77,1a89.22,89.22,0,0,1,10.65,1.86l.28,11.53.76,31,.12,4.76Z"/><path class="n" d="M991.78,466.37l.12,4.76c-29.72.69-41.68-1.59-45.54-4.67a4.19,4.19,0,0,1-1.34-1.71c-3-7.82,28.29-21.68,46-29.42Z"/><path class="n" d="M945.88,354.33c2.57-1.44,6.09.86,11.29,4.84,7.08,5.43,17,14.3,28.25,28.81a216.67,216.67,0,0,1-25.85,52.57c-7.37,10.87-13.84,20.26-24.94,28.62-6.06,4.56-35,26.85-55.6,12.26-11.61-8.2-17.37-25.79-15.24-40,2.23-14.81,12.62-23.32,32.87-39.89a80.59,80.59,0,0,1,19.21-11.89c2.12-.9,3.92-1.56,5.19-2,6,1.24,13.67,1.68,18.16-3.24C946.9,376,940,357.63,945.88,354.33Z"/><path class="n" d="M881.74,421c-10.06-6.38-31-17.24-55.67-12.37-9,1.78-21.26,4.2-27.83,15.46-8.56,14.67-3.5,37.51,8.35,49.48,11.64,11.76,27.21,10.34,39,9.27,18.55-1.68,32.13-10.32,39-15.46Z"/><path class="n" d="M809.67,469.3c30.21-1.74,72.6-3.43,124.66-3,15.2-13.8,16.81-30.3,4.71-40.87-8.34-7.28-25.31-13.61-37.64-10.59-12.16,3-8.39,12.28-23.52,19.67-11.93,5.84-26.32,5.94-42.34,6.06-22.61.17-22.23-3.72-42.34-3-21.69.75-44.69,6.06-44.69,6.06h0s-18.53,15.77-14.12,22.7C739.51,474.29,775.81,471.25,809.67,469.3Z"/><polygon class="n" points="998.6 743.95 760.11 743.95 713.38 466.91 734.85 466.87 801.28 466.74 867.43 466.61 880.13 466.59 880.39 466.59 884.47 466.58 915.94 466.52 938 466.47 946.36 466.46 991.78 466.37 991.9 471.13 992.31 487.95 994.43 574.21 994.7 585.01 998.6 743.95"/><path class="n" d="M994.7,585H763.35a3.43,3.43,0,0,1-.56,0,3.91,3.91,0,0,1-1.27-.39,4.24,4.24,0,0,1-2.43-3.83v-2.28a4.28,4.28,0,0,1,4.26-4.26H994.43Z"/><rect class="n" x="804.65" y="672.34" width="163.43" height="10.79" rx="4.26"/><rect class="n" x="786.09" y="625.47" width="200.55" height="10.79" rx="4.26"/><path class="n" d="M925.39,539.66l-6.54,170.6a5.1,5.1,0,0,1-5.06,5.16h0a5.22,5.22,0,0,1-4.64-5.62l6.53-170.6a5.13,5.13,0,0,1,5.06-5.17h0A5.23,5.23,0,0,1,925.39,539.66Z"/><path class="n" d="M863.41,539.44l21.7,169a5.34,5.34,0,0,1-4.13,6.1h0a5,5,0,0,1-5.49-4.58l-21.7-169a5.35,5.35,0,0,1,4.12-6.1h0A5,5,0,0,1,863.41,539.44Z"/><path class="n" d="M833.72,706.12l-20.4-109.66a5.43,5.43,0,0,1,3.77-6.37h0a4.9,4.9,0,0,1,5.74,4.19l20.4,109.65a5.43,5.43,0,0,1-3.77,6.38h0A4.91,4.91,0,0,1,833.72,706.12Z"/><path class="n" d="M948.9,718.79l20.39-109.65a5.42,5.42,0,0,0-3.77-6.38h0a4.91,4.91,0,0,0-5.74,4.19l-20.4,109.66a5.42,5.42,0,0,0,3.78,6.37h0A4.91,4.91,0,0,0,948.9,718.79Z"/><rect class="n" x="843.86" y="492.7" width="85.02" height="35.71" rx="13.84"/><polyline class="o" points="863.85 739.79 859.95 580.85 859.68 570.05 857.56 483.79 857.15 466.97 857.03 462.21 856.27 431.17 855.99 419.64"/><path class="i" d="M651.38,623.78l-4.63-6A10.74,10.74,0,0,1,651.38,623.78Z"/><path class="p" d="M762.43,558.73s-4.9-5.1-2.45-9.73,6.36-5.5,13.95-5.5H891.71s6.12,2.5,6.12,7.62-2.45,6.35-4.41,7.61S762.43,558.73,762.43,558.73Z"/><path class="q" d="M771.1,543.57s-11.45.51-9.12-9.8c1.19-5.27,6.36-5.5,13.95-5.5H893.71s6.12,2.5,6.12,7.62-2.45,6.35-4.41,7.61S771.1,543.57,771.1,543.57Z"/><path class="q" d="M769.1,530.76s-11.45.51-9.12-9.8c1.19-5.27,6.36-5.5,13.95-5.5H891.71s6.12,2.5,6.12,7.62-2.45,6.35-4.41,7.62S769.1,530.76,769.1,530.76Z"/><path class="r" d="M776.28,515s-11.45.52-9.12-9.79c1.19-5.28,6.36-5.5,14-5.5H898.89s6.12,2.5,6.12,7.62-2.45,6.35-4.41,7.61S776.28,515,776.28,515Z"/><path class="p" d="M630.78,506.54s-11.45.52-9.12-9.79c1.19-5.28,6.36-5.5,14-5.5H753.39s6.12,2.5,6.12,7.62-2.45,6.35-4.41,7.61S630.78,506.54,630.78,506.54Z"/><path class="p" d="M616.93,552.73s-4.9-5.1-2.45-9.73,6.36-5.5,13.95-5.5H746.21s6.12,2.5,6.12,7.62-2.45,6.35-4.41,7.61S616.93,552.73,616.93,552.73Z"/><path class="q" d="M625.6,537.57s-11.45.51-9.12-9.8c1.19-5.27,6.36-5.5,13.95-5.5H748.21s6.12,2.5,6.12,7.62-2.45,6.35-4.41,7.61S625.6,537.57,625.6,537.57Z"/><path class="s" d="M623.6,521.76s-11.45.51-9.12-9.8c1.19-5.27,6.36-5.5,13.95-5.5H746.21s6.12,2.5,6.12,7.62-2.45,6.35-4.41,7.62S623.6,521.76,623.6,521.76Z"/><path class="r" d="M623.6,490.73s-11.45.52-9.12-9.79c1.19-5.28,6.36-5.5,13.95-5.5H746.21s6.12,2.5,6.12,7.62-2.45,6.35-4.41,7.61S623.6,490.73,623.6,490.73Z"/><path class="p" d="M770.6,498.73s-11.45.52-9.12-9.79c1.19-5.28,6.36-5.5,13.95-5.5H893.21s6.12,2.5,6.12,7.62-2.45,6.35-4.41,7.61S770.6,498.73,770.6,498.73Z"/><polygon class="e" points="908.68 526.57 606.24 527.09 647.2 745.69 864.3 745.69 908.68 526.57"/><rect class="t" x="646.31" y="611.76" width="223.12" height="8.52" rx="4.26"/><rect class="t" x="686.24" y="689.18" width="143.25" height="8.52" rx="4.26"/><rect class="t" x="669.98" y="652.2" width="175.79" height="8.52" rx="4.26"/><rect class="t" x="713.33" y="647.36" width="143.25" height="8.52" rx="4.26" transform="matrix(0.04, -1, 1, 0.04, 100.55, 1408.15)"/><rect class="t" x="671.41" y="647.36" width="143.25" height="8.52" rx="4.26" transform="translate(202.83 1479.19) rotate(-98.11)"/><rect class="t" x="658.52" y="667.45" width="96.87" height="8.52" rx="4.26" transform="translate(1221.71 -156.54) rotate(78.33)"/><rect class="t" x="769.02" y="677.45" width="96.87" height="8.52" rx="4.26" transform="translate(1650.48 19.13) rotate(101.67)"/><rect class="u" x="720.61" y="547.44" width="74.52" height="28.17" rx="13.84"/><path class="v" d="M399.81,142.8C365,132.27,290.71,166,310.94,301.69S427,415,427,415s41.76-14.07,45.51-100.28S458.32,160.51,399.81,142.8Z"/><path class="w" d="M369.59,266.05l25.94-4.17-2.07,25.81s-13.13,25.38-25.59,21-6.39-15.58-6.39-15.58Z"/><path class="w" d="M410.65,228.58c-4.22,30.5-20.11,47.93-42.45,44.38s-37-31.15-32.82-61.64,25.74-52.34,48.08-48.8S414.86,198.09,410.65,228.58Z"/><path d="M384.47,215.94a1.49,1.49,0,0,1-.8-.61c-2.89-4.46-8.72-4.33-8.77-4.33a1.54,1.54,0,0,1-1.53-1.54A2.65,2.65,0,0,1,376,207.1a12.67,12.67,0,0,1,10.34,5.78,2.66,2.66,0,0,1-.6,2.84A1.38,1.38,0,0,1,384.47,215.94Z"/><path d="M337,214.86a1.37,1.37,0,0,1-.42-.27,1.66,1.66,0,0,1-.17-2.23,9.94,9.94,0,0,1,10-3.67,1.6,1.6,0,0,1,1.08,1.92,1.48,1.48,0,0,1-1.79,1.16,7.08,7.08,0,0,0-7.08,2.64A1.41,1.41,0,0,1,337,214.86Z"/><path class="x" d="M355.27,228c-1.86,2.44-3.46,4.94-5.3,6.44a1.68,1.68,0,0,0-.32,2.16c1.83,2.85,6.64,4.88,9.56,5.9.43.15.72-.46.36-.75a19.86,19.86,0,0,1-5.06-5.3,2,2,0,0,1-.14-1.71c.49-1.29,1.44-3.93,2.06-6.09A.67.67,0,0,0,355.27,228Z"/><path class="s" d="M374,251a1.25,1.25,0,0,0-1.19-1.94,92.19,92.19,0,0,1-11,1.5,90.76,90.76,0,0,1-11.13-.08,1.27,1.27,0,0,0-1,2.08c2.05,2.63,6.21,6.54,12.54,6.14S372.25,253.87,374,251Z"/><path class="v" d="M426.1,227.13c-26.42-1.28-61.9-33.18-66.1-47.54,3.61-18.06,16.89-28.27,32.75-21.56S435.34,204,426.1,227.13Z"/><path class="v" d="M366,186.85S350.31,204,334.39,207.9c5.58-20,9.56-35.14,19.11-40a60.47,60.47,0,0,1,20.1-5.77Z"/><path class="w" d="M402.62,218.76c-4.95,4.93-5.91,12.46-2.14,16.8s10.83,3.87,15.78-1.07,5.91-12.46,2.15-16.8S407.57,213.82,402.62,218.76Z"/><path class="x" d="M406.89,233.59a1.59,1.59,0,0,1-.56-.41c-2.28-2.72-2.74-6-1.23-8.71a6.94,6.94,0,0,1,7.54-3.59,1.6,1.6,0,0,1,1.1,1.9A1.48,1.48,0,0,1,412,224a4.13,4.13,0,0,0-4.32,2.13c-.84,1.52-.52,3.28.89,5a1.66,1.66,0,0,1-.11,2.23A1.4,1.4,0,0,1,406.89,233.59Z"/><path d="M381.63,220.61a4.55,4.55,0,1,1-4.54-4.87A4.72,4.72,0,0,1,381.63,220.61Z"/><path d="M348.55,220.61a4.55,4.55,0,1,1-4.54-4.87A4.72,4.72,0,0,1,348.55,220.61Z"/><path class="w" d="M345.32,850.51c1.73-18.57-7.2-159.91-7.2-159.91-25.28-124.26-15.35-213.2-15.35-213.2l43.44,3.27,17.12,70.22-8.12,117.26s3.05,9,4.65,16.24c8.72,39.15,0,85.92-5.33,117.1-2.49,14.45-6.36,44.82-6.46,51.72L379,868.34s-39.5,46.87-45.57,47.16c-11.81.57-8.33-12-8.33-12C341.31,885.66,344.82,855.83,345.32,850.51Z"/><path class="p" d="M379.65,885l-2.17,30.11-5.05.24-2.55-28c-13.43,3.67-23.06,29.82-23.06,29.82-9.25,3.56-32.78,6-41.15,1.37-2-8.79,19.45-15,19.45-15,1.93,2.46,13.39,4.35,17.46,1.71,15-13.68,22.29-33.57,25.49-52.07C368.07,853.21,391.74,855,379.65,885Z"/><path class="w" d="M360,486.43l61.2-9c23.4,56.79,31,155.66,37.39,190.88,25.51,45.86,33.61,184.93,33.61,184.93l10.91,15.13s-39.5,46.87-45.57,47.16c-11.81.57-8.33-12-8.33-12,16.23-17.87,19.4-41.62,20.45-46.84,1.58-7.86-49.53-162.14-49.53-162.14l-5.46-14.64C352.25,569.36,342,485.78,342,485.78Z"/><path class="p" d="M503.78,885l-2.17,30.11-5.05.24-2.55-28C480.58,891,471,917.16,471,917.16c-9.25,3.56-32.78,6-41.15,1.37-2-8.79,19.44-15,19.44-15,1.94,2.46,13.4,4.35,17.47,1.71,15-13.68,22.29-33.57,25.49-52.07C492.2,853.21,515.87,855,503.78,885Z"/><path class="w" d="M346.38,332.56S271.15,393.44,259,388.2c-17.42-7.47-33.18-77.28-41.55-93.89-.16-.31-.31-.6-.46-.87,10.21-11,3.51-22.35,3.51-22.35,1.62-.38,5.27,3.4,9.93,9.7,11.4,15.39,28.9,45.83,37.94,67.46l1.28-1.37C292,323,329.87,291.79,340.25,289.94c0,0,14.28-4.11,19.41,14.4C364.25,320.86,346.38,332.56,346.38,332.56Z"/><path class="w" d="M201,292.07c6.23.41,14.43-2.89,16.83,3.1l11.82-6.43.74-8c-10.57-18.16-36.34-23.32-38.89-23.56-6.63-.62-9.71-1.36-10.23-.41s-2.14,7.28,7.48,8.52c12.07,1.56,4.06,11.9-20.43,2.05-6.13-2.46-17.67.74-13.5,5.54C159.41,278.22,172.62,290.22,201,292.07Z"/><path class="s" d="M351.51,338.9S301,370,274.92,383.63c-2.23-8-5.17-26.29-5.32-36.75C292,323,329.87,291.79,340.25,289.94c0,0,14.28-4.11,19.41,14.4C364.25,320.86,351.51,338.9,351.51,338.9Z"/><path class="e" d="M473.77,661.83c-6.11-21.92-3.45-178.85-57.4-221.52L323.53,450.8C302.08,488,310,584.92,317.17,664.66,360.82,681.37,395.53,688.07,473.77,661.83Z"/><path class="l" d="M322.4,426.23c0-21.8-17.62-54.46-9.17-76.46,6.15-17.71,18.24-57.65,31.4-60.34,5.35-1.1,11.21,0,18.61-2.19,0,0-3.86,18.49,4.84,19.24,16.74,1.44,25.54-21.58,25.54-21.58,9-.92,40.51,9.15,40.49,12.8-.1,28.55-11.81,74.73-18.89,105.61a148.43,148.43,0,0,0,1.2,36.81c2.68,9.27,5.95,14.58,6,16.58,0,0-62.06,22.61-101.54-.7C320.85,456,322.4,441,322.4,426.23Z"/><path class="w" d="M432.81,447l-5.29,2.27s-5.51-9.4-11.1-9.1l2.78,9s-3.16,10.49-20.09,9.29c-14.47,3.53-4.35,10.89-8.36,13.84-5.91,4.35,10.67,15,24.63,10.42,18.07-6,29.81-24.26,29.81-24.26Z"/><path class="y" d="M432.81,296s44.22,27.77,65.63,94.34c-19.23,22.86-35.43,5.8-35.43,5.8l-42.84-45.39s-12.59-16.58-6.57-36.84C418.84,296.25,432.81,296,432.81,296Z"/><path class="w" d="M432.81,447l30.91-48.54s7.3-18.62,34.72-8.08c1.32,15.8-9.35,38.31-58.24,73A119.84,119.84,0,0,0,432.81,447Z"/><path class="s" d="M368.08,306.48c-1.49,7.47,2.55,16.42,14.22,12.22,14-5,20.5-33.16,20.5-33.16L394,280.45S387.39,299.88,368.08,306.48Z"/><path class="s" d="M368.08,306.48c-1.73,3.84-11.56,13.71-16.21,7.83s.78-21.3.78-21.3l10.59-5.77S359.09,301.13,368.08,306.48Z"/><path class="s" d="M432.81,296s44.22,27.77,65.63,94.34c-19.23,22.86-37.1,4-37.1,4l-41.17-43.62s-12.59-16.58-6.57-36.84C418.84,296.25,432.81,296,432.81,296Z"/><path class="a" d="M289.76,360.4a289,289,0,0,0-33.38-17.57c-6.53-2.9-13.51-5.66-20.81-8.12-15.76-5.29-33-9.08-50.42-9.3V287.75c0-.24.09-6.32,4-6.56a16.48,16.48,0,0,0,11.53-5.85,17.93,17.93,0,0,0,4.39-12.74c-1-11.09-8.74-18.25-19.66-18.25-4.46,0-10.49,2.06-14,11.86A41.58,41.58,0,0,0,169.33,267a2.89,2.89,0,0,0,5.78.25c0-.2.91-17.1,10.33-17.1,7.83,0,13.16,5,13.9,13a12.13,12.13,0,0,1-3,8.44,10.64,10.64,0,0,1-7.49,3.84c-7.49.46-9.47,8.27-9.47,12.34v37.71h0a168.45,168.45,0,0,0-45.29,8.16,231.41,231.41,0,0,0-23,8.66,281.38,281.38,0,0,0-38.53,20.66,9.69,9.69,0,0,0,5.22,17.85H284a11,11,0,0,0,5.78-20.39Zm-3.62,10A2.14,2.14,0,0,1,284,372H77.79a.82.82,0,0,1-.87-.65.81.81,0,0,1,.39-1,275.07,275.07,0,0,1,34.51-18.77,227,227,0,0,1,25.11-9.66c14.14-4.44,29.41-7.5,44.87-7.72h1.63c16.69,0,33.36,3.55,48.64,8.62,7.23,2.4,14.17,5.14,20.64,8a277.53,277.53,0,0,1,32.45,17.07A2.08,2.08,0,0,1,286.14,370.36Z"/><path class="a" d="M15.37,448.61s17.52,29.63,40.18,54.17C55.55,502.78,55.44,459.74,15.37,448.61Z"/><path class="a" d="M66.37,499.37l-10.82,3.41c-12.29-42.62-40.18-54.17-40.18-54.17l5.46-12.22S61.92,444.19,66.37,499.37Z"/><path class="a" d="M59.53,501.53l2.57-.81c-12.2-40.75-37-55.92-43.52-59.3l-1.28,2.87C24.74,448.33,47.62,463.47,59.53,501.53Z"/><path class="a" d="M350.49,448.61S333,478.24,310.31,502.78C310.31,502.78,310.42,459.74,350.49,448.61Z"/><path class="a" d="M299.49,499.37l10.82,3.41c12.29-42.62,40.18-54.17,40.18-54.17L345,436.39S303.94,444.19,299.49,499.37Z"/><path class="a" d="M306.33,501.53l-2.57-.81c12.2-40.75,37-55.92,43.52-59.3l1.28,2.87C341.12,448.33,318.24,463.47,306.33,501.53Z"/><path class="a" d="M322.26,397.57A134,134,0,0,0,299.53,368l0,0s-32.79-23.34-67.86-36.92c0,0-19.13,9.23-48.73,9.23s-48.73-9.23-48.73-9.23C99.16,344.64,66.37,368,66.37,368A134.25,134.25,0,0,0,43.6,397.57c-12.7,22.22-22.77,38.82-22.77,38.82s28.24,9.23,45.54,63c0,0,18.78-2.78,23.74-8.17.46,19.54.09,38.31.4,56.08.91,52.8-5.46,204.55-5.46,204.55s68.31-3.89,108.64-3.89c37.86,0,87.19,3.89,87.19,3.89s-6.38-151.75-5.47-204.55c.31-17.75-.05-36.5.41-56,5,5.36,23.67,8.12,23.67,8.12,17.3-53.75,45.54-63,45.54-63S335,419.79,322.26,397.57Z"/><path class="z" d="M322.26,397.57A134,134,0,0,0,299.53,368l0,0s-32.79-23.34-67.86-36.92c0,0-19.13,9.23-48.73,9.23s-48.73-9.23-48.73-9.23C99.16,344.64,66.37,368,66.37,368A134.25,134.25,0,0,0,43.6,397.57c-12.7,22.22-22.77,38.82-22.77,38.82s28.24,9.23,45.54,63c0,0,18.78-2.78,23.74-8.17.46,19.54.09,38.31.4,56.08.91,52.8-5.46,204.55-5.46,204.55s68.31-3.89,108.64-3.89c37.86,0,87.19,3.89,87.19,3.89s-6.38-151.75-5.47-204.55c.31-17.75-.05-36.5.41-56,5,5.36,23.67,8.12,23.67,8.12,17.3-53.75,45.54-63,45.54-63S335,419.79,322.26,397.57Z"/><path class="a" d="M213.46,313.15c26.63,63.79-30.27,78.79-30.27,78.79-49-31.22-30.51-78.79-30.51-78.79l32.23,12.68Z"/><path class="a" d="M85.05,751.83s62.28,12.13,195.83,0C280.88,751.83,159.9,731,85.05,751.83Z"/><path class="a" d="M152.68,335.38s30.28-8.2,60.78,0c0,0,.08-1.94.19-1.3,1.65-12.71-.19-20.93-.19-20.93-30.5-8.2-60.78,0-60.78,0a51.69,51.69,0,0,0-1.09,24.44C151.89,336.11,152.22,336.9,152.68,335.38Z"/><path class="a" d="M179.69,383.56s5.16,7.85,6.44,12.46c1.53,5.57-4.51,21.06-4.51,30.76,0,0,0-28-15.12-38.35Z"/><path class="a" d="M175.6,410.44v33.89a2.53,2.53,0,0,0,2.28,2.72h7.47a2.53,2.53,0,0,0,2.28-2.72V390S176.38,401.12,175.6,410.44Z"/><path class="a" d="M152.68,313.15c-.35,1.15-.64,2.3-.89,3.43-.1.45-.16.89-.25,1.34-.13.67-.27,1.35-.37,2s-.13,1.15-.2,1.72-.13,1-.17,1.54c-.06.68-.08,1.34-.11,2,0,.37-.05.76-.05,1.13,0,.76,0,1.51,0,2.25,0,.26,0,.52,0,.77,0,.83.09,1.63.15,2.42,0,.16,0,.32,0,.47.08.87.18,1.72.29,2.55a1.36,1.36,0,0,1,0,.2c.13.89.27,1.75.43,2.59.3-1.48.63-.69,1.09-2.21,0,0,1.71-.46,4.71-1.05A111.84,111.84,0,0,1,152.68,313.15Z"/><path class="a" d="M208.82,334.27c1.55.33,3.09.7,4.64,1.11,0,0,.08-1.94.19-1.3,1.53-11.77.07-19.68-.16-20.78A111.7,111.7,0,0,1,208.82,334.27Z"/><path class="a" d="M152.68,313.15s-11.39,8.69-18.45,17.91c0,0,7.52,46.42,14.12,61.36,0,0,17.31-2.45,28.46-7.33C176.81,385.09,152.22,373.14,152.68,313.15Z"/><path class="a" d="M213.46,313.15s11.39,8.69,18.45,17.91c0,0-7.52,46.42-14.12,61.36,0,0-17.31-2.45-28.47-7.33C189.32,385.09,213.92,373.14,213.46,313.15Z"/><path class="a" d="M136.84,327.89c.71,4.32,8,48.18,14.59,64,1-.17,1.4-.23,2.73-.49-6.13-17.91-12.31-51.36-14.89-66.21C138.21,326.32,137.85,326.73,136.84,327.89Z"/><path class="a" d="M211.9,391.42c1.32.25,1.61.3,2.6.47,6.71-16.19,14.16-61.39,14.62-64.21-1-1.15-1.19-1.37-2.25-2.46C224.31,340,218.05,373.42,211.9,391.42Z"/><path class="a" d="M184.34,417.48a2.77,2.77,0,1,1-2.72-3.25A3,3,0,0,1,184.34,417.48Z"/><path class="a" d="M184.34,433.74a2.77,2.77,0,1,1-2.72-3.25A3,3,0,0,1,184.34,433.74Z"/><path class="a" d="M177.09,402.87A13.61,13.61,0,0,0,183.56,390l-1.94-3.37A49.41,49.41,0,0,0,177.09,402.87Z"/><path class="a" d="M187.63,399.68V390s-11.25,11.08-12,20.4C178.29,405.31,182.58,402.67,187.63,399.68Z"/><path class="a" d="M189.32,385.09l12.08,4s-22.51,8.05-25.8,21.35C175.6,410.44,177,392.35,189.32,385.09Z"/><g class="aa"><path class="a" d="M322.26,397.57A134,134,0,0,0,299.53,368l0,0s-32.79-23.34-67.86-36.92c0,0-19.13,9.23-48.73,9.23s-48.73-9.23-48.73-9.23C99.16,344.64,66.37,368,66.37,368A134.25,134.25,0,0,0,43.6,397.57c-12.7,22.22-22.77,38.82-22.77,38.82s28.24,9.23,45.54,63c0,0,18.78-2.78,23.74-8.17.46,19.54.09,38.31.4,56.08.91,52.8-5.46,204.55-5.46,204.55s68.31-3.89,108.64-3.89c37.86,0,87.19,3.89,87.19,3.89s-6.38-151.75-5.47-204.55c.31-17.75-.05-36.5.41-56,5,5.36,23.67,8.12,23.67,8.12,17.3-53.75,45.54-63,45.54-63S335,419.79,322.26,397.57Z"/><g class="ab"><path class="a" d="M90.5,569.56s2.62-155.33-21.12-194.22c0,0,14.84,19.07,21.61,73.27C97.06,497.22,90.5,569.56,90.5,569.56Z"/><path class="a" d="M92,493s-14-6.09-24.18-29c0,0,8.8,14.5,22.63,22.09Z"/><path class="a" d="M89.42,486.08s-11.18-14.39-13.21-49.69c0,0,5.89,28,15.8,45.44Z"/><path class="a" d="M275.36,569.56s-2.62-155.33,21.12-194.22c0,0-14.84,19.07-21.61,73.27C268.8,497.22,275.36,569.56,275.36,569.56Z"/><path class="a" d="M273.85,493s14-6.09,24.18-29c0,0-8.8,14.5-22.63,22.09Z"/><path class="a" d="M276.45,486.08s11.17-14.39,13.2-49.69c0,0-5.89,28-15.8,45.44Z"/><path class="a" d="M275.36,547.28c.3-17.35,0-35.66.39-54.7-1.2.27-1.9.46-1.9.46s-11,42.73-30.38,76.52c-26.77,46.53,8,3.53,20-9.37s-6.8,57.73-24.15,98.29c-9.61,22.45,15.07-11.13,36.63-54.06C275.39,581.6,275.13,561.07,275.36,547.28Z"/><path class="a" d="M116.28,716.58C101.67,682.45,85.9,623,96,633.86s39.32,47,16.79,7.89C101.92,622.92,94.22,600.81,90.26,588c-.47,26.88-1.43,59.07-2.41,87.79C105.37,709.61,124,734.65,116.28,716.58Z"/></g></g></g></svg>